PathFileType	4	(X/Y/Z)
DataRate	CameraRate	NumFrames	NumMarkers	Units	OrigDataRate	OrigDataStartFrame	OrigNumFrames	
  100.0	  100.0	     4	     56	     mm	  100.0	      76	     86
Frame#	Time	LASI			RASI			LPSI			RPSI			RTH1			RTH2			RTH3			RLFC			RMFC			LTH1			LTH2			LTH3			LLFC			LMFC			RTB1			RTB2			RTB3			RLMAL			RMMAL			LTB1			LTB2			LTB3			LMMAL			LLMAL			RCAL			RTOE			RMT5			LCAL			LTOE			LMT5			LACR			RACR			CLAV			C7			LASH			LPSH			RASH			RPSH			RUA1			RUA2			RUA3			RLEL			RMEL			LUA1			LUA2			LUA3			LLEL			LMEL			RFAsuperior			RFAradius			RFAulna			LFAsuperior			LFAradius			LFAulna			RHJC			LHJC			
		X1	Y1	Z1	X2	Y2	Z2	X3	Y3	Z3	X4	Y4	Z4	X5	Y5	Z5	X6	Y6	Z6	X7	Y7	Z7	X8	Y8	Z8	X9	Y9	Z9	X10	Y10	Z10	X11	Y11	Z11	X12	Y12	Z12	X13	Y13	Z13	X14	Y14	Z14	X15	Y15	Z15	X16	Y16	Z16	X17	Y17	Z17	X18	Y18	Z18	X19	Y19	Z19	X20	Y20	Z20	X21	Y21	Z21	X22	Y22	Z22	X23	Y23	Z23	X24	Y24	Z24	X25	Y25	Z25	X26	Y26	Z26	X27	Y27	Z27	X28	Y28	Z28	X29	Y29	Z29	X30	Y30	Z30	X31	Y31	Z31	X32	Y32	Z32	X33	Y33	Z33	X34	Y34	Z34	X35	Y35	Z35	X36	Y36	Z36	X37	Y37	Z37	X38	Y38	Z38	X39	Y39	Z39	X40	Y40	Z40	X41	Y41	Z41	X42	Y42	Z42	X43	Y43	Z43	X44	Y44	Z44	X45	Y45	Z45	X46	Y46	Z46	X47	Y47	Z47	X48	Y48	Z48	X49	Y49	Z49	X50	Y50	Z50	X51	Y51	Z51	X52	Y52	Z52	X53	Y53	Z53	X54	Y54	Z54	X55	Y55	Z55	X56	Y56	Z56	

288	2.88000	725.32569	1021.58558	-607.01205	480.30374	1024.02483	-597.72802	645.32613	1047.64370	-768.46697	548.15029	1045.32155	-768.39880	404.95078	787.27068	-676.60871	410.39211	697.80977	-628.72120	419.04321	610.92798	-702.12076	415.39652	515.74885	-725.26555	523.35020	492.10364	-693.45306	788.26873	826.60989	-663.67335	789.66800	718.86484	-623.57406	781.88502	613.48175	-694.70372	784.15988	527.29440	-686.65430	671.61369	507.30390	-682.12374	449.65334	388.15798	-680.50763	399.15855	321.85627	-728.64079	446.40476	203.20992	-708.67995	411.81897	125.64369	-765.01681	484.51279	138.04491	-730.25236	750.58668	405.50709	-662.04474	808.47342	338.40191	-728.92951	761.97277	219.38076	-688.54338	728.47094	132.98891	-695.04796	800.01221	119.86678	-748.32938	466.45268	108.22145	-813.31417	464.81750	71.00082	-593.23825	367.90296	45.61301	-644.26960	745.42532	107.26375	-797.20547	772.07734	71.39716	-580.24117	860.38869	47.34735	-637.67284	742.11535	1506.81935	-711.84522	463.12068	1508.47245	-695.58980	591.39387	1445.75975	-596.85179	601.74687	1520.53937	-744.97580	766.02295	1457.27526	-648.43173	749.16972	1447.22318	-785.29755	454.19080	1457.99597	-639.72961	440.07262	1456.00336	-770.99872	348.08195	1427.69431	-724.57405	337.71918	1341.09878	-748.45908	251.68427	1338.23577	-698.36277	204.97617	1286.02803	-710.91956	253.61007	1235.37853	-706.79565	848.81623	1420.48653	-758.39110	850.72118	1335.49601	-766.62853	936.18464	1360.32266	-740.16252	999.56363	1306.26293	-746.41607	961.19267	1252.08668	-738.71033	116.25452	1256.36646	-648.14784	47.16407	1170.02384	-555.39985	46.82652	1135.97872	-619.70797	1084.44710	1288.02933	-673.46365	1182.63443	1191.25657	-601.29033	1184.41307	1162.38966	-666.00990	505.01226	936.96625	-650.74399	681.11950	948.68412	-670.09408	
289	2.89000	725.03133	1021.52396	-606.35570	479.98684	1024.14620	-597.47517	645.20218	1047.55938	-767.89113	548.01021	1045.31464	-767.98989	404.66788	787.32927	-676.30556	410.08907	697.85549	-628.39422	418.74573	610.97852	-701.69950	415.12505	515.78126	-724.83686	523.12717	492.13899	-693.01188	787.97175	826.57390	-662.98990	789.29142	718.76201	-622.97637	781.66683	613.45691	-694.10756	783.94597	527.28843	-686.15389	671.45159	507.16098	-681.83160	449.51115	388.14083	-680.27326	399.09754	321.88728	-728.47773	446.26376	203.19581	-708.48253	411.90006	125.65358	-764.89301	484.42831	138.04900	-730.12646	750.45462	405.46506	-661.70773	808.36685	338.42039	-728.62011	761.88841	219.37129	-688.29970	728.39653	133.01179	-694.96312	799.93859	119.88358	-748.23695	466.41859	108.26165	-813.26643	464.75913	70.98974	-593.17074	367.82811	45.61821	-644.22480	745.37329	107.29168	-797.22495	771.97550	71.41235	-580.17186	860.32495	47.33710	-637.62403	741.25934	1508.06272	-712.08164	464.09720	1509.34157	-696.52349	591.62289	1446.21159	-596.80922	601.98466	1520.68608	-744.63169	766.06822	1459.51505	-648.55521	748.73674	1448.22590	-785.24667	454.70012	1459.39402	-640.33326	440.97665	1457.01812	-771.44647	347.88704	1432.61792	-725.58087	334.21991	1346.73466	-748.55613	248.04324	1347.56971	-699.19783	199.30663	1297.26362	-711.74858	245.78290	1244.71999	-706.64862	849.35133	1425.74799	-759.76687	854.15275	1341.34212	-767.62532	939.07784	1369.23692	-741.67520	1004.39461	1317.63646	-748.50947	968.32130	1262.16915	-739.74945	108.73710	1271.98860	-649.75030	35.49953	1189.23575	-556.97809	34.16456	1154.68040	-621.03881	1091.16897	1303.66399	-676.95111	1194.53615	1211.46842	-605.78982	1196.59031	1182.56352	-670.69213	504.69886	937.03443	-650.32683	680.83159	948.63289	-669.51567	
290	2.90000	724.74872	1021.44697	-605.68841	479.66695	1024.26150	-597.21388	645.12254	1047.48392	-767.33898	547.88679	1045.31364	-767.56051	404.44355	787.37520	-676.03698	409.81869	697.88060	-628.03029	418.48115	611.03410	-701.32914	414.85199	515.81574	-724.36100	522.91542	492.16866	-692.55932	787.68623	826.53548	-662.31176	788.95056	718.67706	-622.33474	781.49255	613.44035	-693.58964	783.75185	527.25929	-685.59707	671.32923	506.97628	-681.51648	449.37459	388.11383	-680.05594	399.03594	321.88206	-728.31091	446.12839	203.17185	-708.30215	411.72203	125.68389	-764.81833	484.35257	138.05295	-730.01569	750.31208	405.39525	-661.34628	808.26700	338.42688	-728.29193	761.82742	219.36428	-688.04918	728.34045	133.03763	-694.89840	799.88265	119.90341	-748.16207	466.39155	108.29741	-813.21986	464.71942	70.97992	-593.11229	367.77325	45.63574	-644.18941	745.32405	107.30502	-797.20676	771.88350	71.44423	-580.09424	860.28151	47.32872	-637.57712	740.39670	1509.34199	-712.32830	465.02918	1510.31481	-697.16952	591.89424	1446.69274	-596.74133	602.25064	1520.82727	-744.33823	766.07830	1461.83767	-648.69986	748.26017	1449.24357	-785.26113	455.29691	1460.85953	-640.86643	441.95672	1458.08180	-771.87731	347.91342	1437.64527	-726.60039	331.20831	1352.58489	-748.88160	244.80661	1357.09872	-700.15210	194.11689	1308.77898	-712.70343	238.36893	1254.48011	-706.67458	849.68142	1431.05649	-761.24278	857.17225	1347.21708	-768.57903	941.59017	1378.33147	-743.32261	1008.73015	1329.17162	-750.77820	975.00070	1272.52028	-740.90836	101.77356	1287.95242	-651.64190	24.50253	1209.03528	-558.92831	22.29584	1173.89808	-622.68197	1097.21053	1319.55657	-680.69459	1205.48634	1232.13885	-610.65787	1207.83342	1203.18049	-675.59793	504.39188	937.10318	-649.92744	680.55341	948.57332	-668.92704	
291	2.91000	724.47822	1021.36550	-605.02776	479.35042	1024.36922	-596.94104	645.09661	1047.42198	-766.81463	547.79220	1045.31026	-767.12203	404.25074	787.41655	-675.77520	409.58765	697.89513	-627.65826	418.26720	611.08921	-701.01139	414.59264	515.80890	-723.86453	522.73046	492.20146	-692.12644	787.43251	826.49825	-661.62681	788.69788	718.64902	-621.63016	781.36070	613.42646	-693.07734	783.59582	527.21267	-685.03720	671.21286	506.85031	-681.17711	449.25974	388.07500	-679.84376	398.97358	321.85560	-728.14097	446.01473	203.13605	-708.12692	411.34543	125.72774	-764.79731	484.29486	138.05301	-729.91560	750.15857	405.31728	-660.98672	808.18254	338.42705	-727.95933	761.78119	219.35662	-687.83387	728.30793	133.07184	-694.85454	799.85248	119.93394	-748.11503	466.37680	108.33507	-813.17925	464.70691	70.97537	-593.07549	367.75479	45.66155	-644.17313	745.29530	107.31626	-797.16016	771.84293	71.45813	-580.04833	860.26518	47.33634	-637.55759	739.54436	1510.64601	-712.57977	465.90175	1511.44950	-697.60320	592.17883	1447.21846	-596.66916	602.58180	1520.96787	-744.19172	766.02860	1464.23178	-648.86650	747.75711	1450.23715	-785.30998	455.94343	1462.43395	-641.30956	443.02038	1459.20228	-772.29559	348.16965	1442.76909	-727.65637	328.72651	1358.60360	-749.42274	242.00588	1366.79271	-701.21960	189.47456	1320.52640	-713.84595	231.45469	1264.60420	-706.91331	849.66873	1436.27191	-762.42795	859.79926	1353.01583	-769.42588	943.70395	1387.52249	-745.08940	1012.57776	1340.83864	-753.21418	981.24996	1282.99198	-742.34374	95.50033	1304.13324	-653.72598	14.13188	1229.39485	-561.22415	11.29127	1193.54134	-624.59395	1102.53609	1335.62569	-684.64558	1215.43625	1253.15051	-615.84865	1218.10202	1224.13019	-680.71139	504.09993	937.17208	-649.55448	680.29410	948.51010	-668.32866	
